<?xml version="1.0" standalone="no"?>
<!DOCTYPE svg PUBLIC "-//W3C//DTD SVG 20010904//EN"
 "http://www.w3.org/TR/2001/REC-SVG-20010904/DTD/svg10.dtd">
<svg version="1.0" xmlns="http://www.w3.org/2000/svg"
 width="700.000000pt" height="700.000000pt" viewBox="0 0 700.000000 700.000000"
 preserveAspectRatio="xMidYMid meet">
<metadata>
Created by potrace 1.14, written by Peter Selinger 2001-2017
</metadata>
<g transform="translate(0.000000,700.000000) scale(0.100000,-0.100000)"
fill="#000000" stroke="none">
<path d="M3435 6984 c-16 -8 -40 -26 -51 -40 -26 -29 -178 -196 -214 -234 -14
-14 -65 -70 -114 -123 -48 -53 -102 -112 -120 -130 -17 -19 -71 -78 -121 -132
-49 -54 -101 -110 -115 -125 -69 -75 -211 -229 -235 -255 -15 -16 -71 -77
-124 -134 -53 -57 -107 -116 -121 -131 -14 -15 -65 -71 -114 -124 -49 -53
-100 -111 -113 -128 -46 -63 -21 -168 50 -205 27 -14 72 -16 300 -17 l267 -1
0 -1509 c0 -1494 0 -1510 20 -1551 15 -31 32 -47 62 -61 38 -17 83 -18 817
-18 744 -1 777 0 808 18 17 11 41 36 52 56 l21 38 0 1514 0 1514 261 -1 c247
-2 263 -1 302 19 50 25 80 73 79 126 -1 62 0 60 -228 306 -66 71 -210 228
-224 244 -8 10 -64 71 -125 136 -212 229 -230 248 -240 260 -5 6 -57 62 -115
124 -58 62 -112 121 -121 132 -9 10 -64 69 -121 131 -58 62 -139 150 -182 197
-42 47 -92 93 -109 103 -39 21 -92 22 -132 1z"/>
<path d="M1419 4816 c-4 -4 -16 -9 -28 -11 -33 -6 -85 -41 -115 -77 -45 -53
-102 -179 -109 -238 0 -3 -4 -21 -9 -40 -30 -128 -44 -427 -25 -560 3 -19 8
-57 12 -83 4 -27 16 -79 27 -115 25 -83 25 -85 -5 -257 -23 -128 -44 -291 -40
-322 0 -7 -3 -13 -8 -13 -5 0 -9 4 -9 9 0 21 -131 141 -181 166 -128 65 -293
8 -366 -127 -27 -49 -24 -183 6 -268 73 -209 334 -548 528 -687 52 -37 63 -50
69 -81 21 -123 94 -390 139 -504 7 -17 5 -17 -31 -2 -101 43 -196 50 -268 20
-76 -32 -153 -141 -164 -232 -6 -54 19 -132 61 -193 118 -172 453 -381 757
-472 94 -28 126 -33 206 -31 60 1 74 -2 95 -21 22 -20 83 -66 169 -128 89 -65
291 -176 423 -233 l57 -25 0 -85 c0 -46 5 -97 11 -113 12 -34 49 -70 84 -83
17 -6 317 -10 803 -10 753 0 778 1 809 20 55 33 67 63 73 173 l5 100 100 46
c193 89 360 190 505 306 67 53 68 54 130 51 80 -4 142 8 266 49 249 83 546
264 664 406 68 82 92 132 98 206 4 57 2 70 -29 129 -54 108 -148 167 -250 158
-58 -5 -128 -24 -157 -42 -12 -8 -24 -13 -27 -11 -2 2 14 58 36 123 34 102 77
261 93 346 15 82 19 89 58 115 218 145 515 540 567 757 38 158 -17 283 -150
343 -95 42 -181 34 -273 -27 -25 -17 -103 -96 -123 -125 -20 -30 -29 -23 -31
29 -3 46 -28 237 -36 278 -3 13 -8 42 -11 65 -4 22 -10 55 -15 73 -6 23 -4 46
6 75 45 126 63 281 59 497 -7 349 -87 577 -230 653 -56 30 -171 30 -238 -1
-119 -53 -170 -168 -162 -367 11 -288 160 -698 315 -868 41 -44 50 -62 59
-112 29 -165 40 -262 56 -485 l6 -75 -44 90 c-120 247 -238 359 -376 359 -102
0 -219 -74 -257 -162 -21 -49 -21 -161 0 -242 40 -152 189 -408 337 -580 92
-107 138 -150 217 -202 41 -28 60 -47 58 -58 -3 -8 -17 -64 -31 -124 -29 -117
-81 -276 -121 -366 -42 -94 -104 -215 -104 -205 -1 100 -10 275 -13 291 -3 12
-8 37 -11 55 -13 84 -61 183 -111 230 -55 52 -102 68 -192 66 -131 -5 -205
-60 -250 -188 -55 -156 -33 -495 49 -744 10 -33 21 -67 23 -75 6 -27 46 -124
60 -146 7 -11 10 -25 7 -31 -9 -13 -188 -146 -232 -172 -92 -54 -190 -108
-241 -132 l-56 -27 -22 39 c-13 23 -38 47 -59 58 -35 17 -76 18 -817 17 -744
-2 -781 -2 -812 -20 -17 -11 -41 -36 -53 -57 l-21 -39 -91 46 c-51 25 -126 67
-167 92 -95 57 -260 178 -267 196 -3 7 9 43 26 81 40 89 84 238 112 378 29
148 33 431 6 517 -44 141 -139 213 -279 211 -193 -2 -290 -164 -308 -511 l-6
-135 -51 105 c-28 58 -63 134 -77 170 -30 75 -94 286 -102 333 -5 31 -9 45
-20 85 -4 15 8 27 54 56 166 102 419 431 517 670 103 252 72 413 -94 492 -119
56 -222 35 -324 -68 -69 -69 -91 -100 -160 -233 l-57 -110 4 65 c8 123 21 263
30 319 34 221 35 224 79 271 61 64 101 127 156 243 110 236 172 492 166 693
-3 100 -6 119 -33 176 -32 68 -70 105 -137 133 -40 17 -157 31 -167 21z"/>
<path d="M2736 1679 c-47 -8 -86 -36 -109 -80 -16 -30 -17 -58 -15 -246 3
-197 4 -214 24 -240 12 -15 35 -36 53 -46 29 -18 72 -19 814 -20 l782 -1 37
24 c63 42 68 64 68 296 0 191 -2 209 -21 244 -11 20 -35 45 -52 56 -31 17 -68
18 -788 19 -416 0 -773 -3 -793 -6z"/>
</g>
</svg>
